<svg width="24" height="24" viewBox="0 0 24 24" fill="none" xmlns="http://www.w3.org/2000/svg">
<g clip-path="url(#clip0_1098_31718)">
<path d="M6.32185 7.07143C6.32185 7.49767 6.49117 7.90645 6.79257 8.20785C7.09397 8.50925 7.50275 8.67857 7.92899 8.67857C8.35523 8.67857 8.76401 8.50925 9.06541 8.20785C9.36681 7.90645 9.53613 7.49767 9.53613 7.07143C9.53613 6.64519 9.36681 6.2364 9.06541 5.93501C8.76401 5.63361 8.35523 5.46429 7.92899 5.46429C7.50275 5.46429 7.09397 5.63361 6.79257 5.93501C6.49117 6.2364 6.32185 6.64519 6.32185 7.07143ZM21.1076 0H2.89328C2.41917 0 2.03613 0.383036 2.03613 0.857143V18.5357C2.03613 19.0098 2.41917 19.3929 2.89328 19.3929H21.1076C21.5817 19.3929 21.9647 19.0098 21.9647 18.5357V0.857143C21.9647 0.383036 21.5817 0 21.1076 0ZM20.2504 17.6786H3.75042V1.71429H20.2504V17.6786ZM14.4647 7.07143C14.4647 7.49767 14.634 7.90645 14.9354 8.20785C15.2368 8.50925 15.6456 8.67857 16.0718 8.67857C16.4981 8.67857 16.9069 8.50925 17.2083 8.20785C17.5097 7.90645 17.679 7.49767 17.679 7.07143C17.679 6.64519 17.5097 6.2364 17.2083 5.93501C16.9069 5.63361 16.4981 5.46429 16.0718 5.46429C15.6456 5.46429 15.2368 5.63361 14.9354 5.93501C14.634 6.2364 14.4647 6.64519 14.4647 7.07143ZM21.1665 21.9643H2.83435C2.39238 21.9643 2.03613 22.3473 2.03613 22.8214V23.7857C2.03613 23.9036 2.12453 24 2.23435 24H21.7638C21.8736 24 21.962 23.9036 21.962 23.7857V22.8214C21.9647 22.3473 21.6085 21.9643 21.1665 21.9643ZM16.0718 11.8929H7.92899C7.81113 11.8929 7.7147 11.9893 7.7147 12.1071V13.7143C7.7147 13.8321 7.81113 13.9286 7.92899 13.9286H16.0718C16.1897 13.9286 16.2861 13.8321 16.2861 13.7143V12.1071C16.2861 11.9893 16.1897 11.8929 16.0718 11.8929Z" fill="#389E0D"/>
</g>
<defs>
<clipPath id="clip0_1098_31718">
<rect width="24" height="24" fill="white"/>
</clipPath>
</defs>
</svg>
